Coordinates
version=1
nRows=11
nColumns=40
inDegrees=yes

Units are S.I. units (second, meters, Newtons, ...)
Angles are in degrees.

endheader
time	pelvis_tilt	pelvis_list	pelvis_rotation	pelvis_tx	pelvis_ty	pelvis_tz	hip_flexion_r	hip_adduction_r	hip_rotation_r	knee_angle_r	knee_angle_r_beta	ankle_angle_r	subtalar_angle_r	mtp_angle_r	hip_flexion_l	hip_adduction_l	hip_rotation_l	knee_angle_l	knee_angle_l_beta	ankle_angle_l	subtalar_angle_l	mtp_angle_l	lumbar_extension	lumbar_bending	lumbar_rotation	arm_flex_r	arm_add_r	arm_rot_r	elbow_flex_r	pro_sup_r	wrist_flex_r	wrist_dev_r	arm_flex_l	arm_add_l	arm_rot_l	elbow_flex_l	pro_sup_l	wrist_flex_l	wrist_dev_l
     12.54500000	     -2.13716333	     -4.50244702	     -0.14298349	      1.04586446	      0.92745539	      0.47375805	     17.03947911	      0.69812569	    -11.84799178	     20.81391460	     20.81391460	      7.44606027	     -3.95243094	     -4.28581394	      6.05071216	    -11.39902810	     -7.29676663	     35.01878534	     35.01878534	     13.67726463	    -13.81364459	     -7.33194977	     -8.68620578	      5.08770705	      1.45909129	      3.83041358	    -15.58203409	     -4.53036207	     39.39890334	     45.52204704	      0.00000000	      0.00000000	     15.78338035	    -14.99888761	     -9.36273253	     64.19009915	     47.10419189	      0.00000000	      0.00000000
     12.55828571	     -1.93637990	     -4.53677278	      0.17309156	      1.04673455	      0.92802070	      0.47628161	     16.29768244	      0.85082368	    -12.20854860	     20.69337650	     20.69337650	      7.84594436	     -3.76314663	     -4.41019314	      7.69764710	    -11.94670063	     -6.36651368	     38.78279594	     38.78279594	     12.16519235	    -14.79877677	     -7.64652500	     -8.82479065	      5.11979819	      1.52394498	      5.17840933	    -16.01084368	     -4.65297394	     40.20348740	     45.50907224	      0.00000000	      0.00000000	     14.92922069	    -14.65212536	     -9.17248440	     63.36476726	     47.07244766	      0.00000000	      0.00000000
     12.57157143	     -1.82460726	     -4.49369696	      0.52963349	      1.04725342	      0.92833745	      0.47857742	     15.73972904	      0.85336657	    -12.72616946	     20.72177704	     20.72177704	      8.27401208	     -3.36175427	     -4.62436924	      9.56653888	    -12.28880761	     -5.22770137	     42.56916413	     42.56916413	     10.35655382	    -16.00845797	     -7.81715536	     -8.87390414	      5.07918988	      1.37940750	      6.42061511	    -16.44390597	     -4.63024508	     41.92278343	     45.45613184	      0.00000000	      0.00000000	     14.22371440	    -14.33248189	     -9.18398352	     61.52830447	     47.04425953	      0.00000000	      0.00000000
     12.58485714	     -1.61885134	     -4.61285750	      0.87659736	      1.04753792	      0.92865606	      0.48089670	     15.03231219	      1.09816303	    -13.11774664	     20.60049174	     20.60049174	      8.60064738	     -3.23166805	     -4.70719149	     11.41849730	    -12.85420462	     -4.26017403	     46.34900287	     46.34900287	      8.65879801	    -16.64576577	     -7.72649330	     -9.10829242	      5.16626349	      1.63336853	      7.86467737	    -17.01162866	     -4.75277044	     42.82481545	     45.43926152	      0.00000000	      0.00000000	     13.50260220	    -13.81656973	     -9.02282780	     60.67216487	     47.01395270	      0.00000000	      0.00000000
     12.59814286	     -1.62810326	     -4.60743385	      1.30353879	      1.04747522	      0.92855427	      0.48288298	     14.65184607	      1.12073104	    -13.68455187	     20.64720291	     20.64720291	      9.01171190	     -2.92281510	     -4.83069523	     13.66916575	    -13.06555987	     -2.98738330	     50.18347451	     50.18347451	      7.74340413	    -17.05519692	     -5.33453890	     -9.02729191	      5.19324587	      1.73067828	      8.59246950	    -17.70003710	     -4.40303927	     45.78387273	     45.32664378	      0.00000000	      0.00000000	     13.35543162	    -13.18132117	     -9.30832143	     57.27846214	     46.98881712	      0.00000000	      0.00000000
     12.61142857	     -1.59824336	     -4.74617602	      1.71360974	      1.04718452	      0.92847476	      0.48487090	     14.23284574	      1.35805053	    -14.07311126	     20.63435890	     20.63435890	      9.35624771	     -2.87366346	     -4.78697659	     15.87090434	    -13.42887130	     -1.86564976	     53.74837387	     53.74837387	      7.18531650	    -17.00077446	     -2.27467314	     -9.09505074	      5.33903634	      2.14452559	      9.40864377	    -18.52282812	     -4.32400362	     48.08205055	     45.26306420	      0.00000000	      0.00000000	     13.14816425	    -12.47031878	     -9.21554821	     54.85950107	     46.94194431	      0.00000000	      0.00000000
     12.62471429	     -1.56270399	     -4.85463783	      2.13594944	      1.04671308	      0.92836436	      0.48674470	     13.84262418	      1.55668271	    -14.44464076	     20.65742463	     20.65742463	      9.65987513	     -2.92122186	     -4.81246251	     17.92059372	    -13.73429328	     -0.89756363	     56.72638685	     56.72638685	      6.14389058	    -17.13365726	     -0.93031235	     -9.15791247	      5.44010550	      1.97266093	     11.08780676	    -18.88971775	     -4.50167960	     49.54567415	     45.23604192	      0.00000000	      0.00000000	     12.30327231	    -12.19523890	     -9.14881878	     53.04151370	     46.90298289	      0.00000000	      0.00000000
     12.63800000	     -1.55590733	     -4.96845755	      2.53943855	      1.04609843	      0.92827110	      0.48846675	     13.46928246	      1.76178413	    -14.80958993	     20.62932880	     20.62932880	     10.01356077	     -2.90071815	     -4.69070200	     19.99535688	    -13.95429876	      0.03180141	     59.42404474	     59.42404474	      6.23822713	    -16.84779353	      2.59088898	     -9.20222405	      5.54238687	      2.40917351	     12.12696996	    -19.68416581	     -4.41579416	     51.52986363	     45.19011880	      0.00000000	      0.00000000	     12.27592306	    -11.40796070	     -9.50780964	     49.88791113	     46.88514685	      0.00000000	      0.00000000
     12.65128571	     -1.56744480	     -5.04892077	      2.94877838	      1.04545915	      0.92823966	      0.49011278	     13.08212737	      1.95469739	    -15.10811211	     20.52438453	     20.52438453	     10.30854415	     -2.97841444	     -4.68293552	     21.83271412	    -14.18537403	      0.68950737	     61.30648536	     61.30648536	      5.54642020	    -16.90241285	      3.29299319	     -9.23647254	      5.59585871	      2.20086416	     13.91029040	    -19.90854029	     -4.63178449	     52.86892127	     45.16769246	      0.00000000	      0.00000000	     11.21337073	    -11.16912070	     -9.47520670	     48.23593014	     46.84986800	      0.00000000	      0.00000000
     12.66457143	     -1.51830466	     -5.08968533	      3.32690949	      1.04469798	      0.92843819	      0.49155204	     12.64614342	      2.09361879	    -15.40407664	     20.42973291	     20.42973291	     10.56033125	     -3.00698984	     -4.57438197	     23.49213849	    -14.31858867	      1.22562989	     62.68690144	     62.68690144	      5.52230557	    -16.83578811	      4.93481876	     -9.36419006	      5.61889024	      2.26177039	     15.47827628	    -20.35740658	     -4.57668847	     54.52288686	     45.12928816	      0.00000000	      0.00000000	     10.78306837	    -10.67719373	     -9.78186535	     45.26196978	     46.83595372	      0.00000000	      0.00000000
     12.67785714	     -1.60255193	     -5.09428116	      3.68011180	      1.04394333	      0.92864904	      0.49285027	     12.26346232	      2.21046798	    -15.67367794	     20.16295855	     20.16295855	     10.79464193	     -2.95803374	     -4.42183140	     25.13271264	    -14.41621650	      1.56053130	     63.44303674	     63.44303674	      5.71172626	    -16.74018554	      6.40661626	     -9.32691705	      5.60457895	      2.47347200	     16.80821643	    -20.89974732	     -4.59931734	     56.21823323	     45.09945945	      0.00000000	      0.00000000	     10.44202639	    -10.08143254	    -10.26774203	     42.20344461	     46.83702464	      0.00000000	      0.00000000
